<svg xmlns="http://www.w3.org/2000/svg" width="44" height="44" viewBox="0 0 44 44" fill="none">
    <path
        d="M17.9978 8.03699C18.1081 8.2616 18.181 8.50214 18.2137 8.74942L18.8169 17.7192L19.1164 22.2277C19.1195 22.6913 19.1922 23.152 19.3323 23.5948C19.694 24.4539 20.564 24.9999 21.5106 24.9618L35.9347 24.0184C36.5593 24.0081 37.1625 24.2417 37.6115 24.6678C37.9857 25.0229 38.2273 25.4874 38.3034 25.987L38.3289 26.2904C37.732 34.5556 31.6617 41.4494 23.4136 43.229C15.1655 45.0086 6.70753 41.2493 2.6317 33.9923C1.45667 31.884 0.722738 29.5666 0.47299 27.1761C0.368658 26.4685 0.322718 25.7538 0.335618 25.0389C0.322737 16.1776 6.63302 8.51676 15.4662 6.66991C16.5293 6.50438 17.5716 7.06718 17.9978 8.03699Z"
        fill="#97A5EB" />
    <path opacity="0.4"
        d="M23.8851 0.335118C33.7648 0.586468 42.0684 7.69088 43.6667 17.26L43.6515 17.3306L43.6078 17.4333L43.6139 17.7151C43.5913 18.0886 43.4471 18.4478 43.1987 18.7381C42.9398 19.0404 42.5862 19.2462 42.1968 19.3261L41.9594 19.3587L25.3177 20.437C24.7641 20.4916 24.213 20.3131 23.8013 19.9459C23.4583 19.6399 23.239 19.2269 23.177 18.7818L22.06 2.16431C22.0406 2.10812 22.0406 2.04721 22.06 1.99102C22.0753 1.53297 22.2769 1.1 22.6198 0.788841C22.9628 0.477686 23.4185 0.314276 23.8851 0.335118Z"
        fill="#FFCC91" />
</svg>